<svg xmlns="http://www.w3.org/2000/svg" viewBox="0 0 24 24" fill="currentColor"><path d="M16.36039,16,18,22H6l1.63961-6h8.72078M18,14H6L4,22a2.18549,2.18549,0,0,0,2,2H18a2.15843,2.15843,0,0,0,2-2l-2-8Z"/><path d="M15.20356,6.31271c.30817-1.4271.09791-4.29613-1.54133-4.31268-1.268-.00845-1.6929,1.79111-1.66094,3.2h-.00264C11.9291-.30735,7.6814,2.162,8.79466,6.31427A4.40879,4.40879,0,0,0,7,10H17A4.41029,4.41029,0,0,0,15.20356,6.31271ZM14.49334,9.2a.83288.83288,0,0,0-1.66221,0H11.16892a.83288.83288,0,0,0-1.66221,0H7.84449a4.09783,4.09783,0,0,1,1.897-2.55516C8.66667,2.8,11.67679.96761,11.0701,6.10993a4.09653,4.09653,0,0,1,1.85665-.00083c-.27068-.94214.03708-3.39037.73548-3.30907.85176-.026,1.02189,2.99027.59371,3.84315A4.098,4.098,0,0,1,16.15555,9.2Z"/><polygon points="22 11 2 11 2 13 22 13 22 11 22 11"/></svg>