<svg xmlns="http://www.w3.org/2000/svg" viewBox="0 0 24 24" fill="currentColor"><path d="M24,10.40283a3.93947,3.93947,0,0,0-1.18242-2.97558,2.47749,2.47749,0,0,0-1.76144-3.35547A3.389,3.389,0,0,0,20.401,3.3584a3.22846,3.22846,0,0,0-2.30725-.78076,2.49685,2.49685,0,0,0-4.0921,1.82177L13.99772,6H12V9H9.99837V4S8.99854,2,7.49878,2a2.473,2.473,0,0,0-1.59349.57617A3.26924,3.26924,0,0,0,3.59707,3.356,3.52471,3.52471,0,0,0,2.94,4.07275,2.49963,2.49963,0,0,0,.99984,6.5a2.47236,2.47236,0,0,0,.18063.92822A3.91989,3.91989,0,0,0,0,10.3999,4.67888,4.67888,0,0,0,.19821,11.749,3.45454,3.45454,0,0,0,0,12.8999a3.02806,3.02806,0,0,0,1.54369,2.7749,3.82856,3.82856,0,0,0,.53019,2.14454,3.497,3.497,0,0,0,2.51033,1.81543,3.308,3.308,0,0,0,1.70773,1.20117,3.52551,3.52551,0,0,0,1.05061.16211A2.57058,2.57058,0,0,0,9.90171,19.3457a2.12631,2.12631,0,0,0,.08885-.44629L10,15h1v2h3s-.004,1.21857.00163,1.4115a4.90935,4.90935,0,0,0,.09568.93616,2.5271,2.5271,0,0,0,2.56014,1.65039A3.51166,3.51166,0,0,0,17.711,20.834a3.31888,3.31888,0,0,0,1.70285-1.19726,3.51089,3.51089,0,0,0,2.51229-1.81934,3.83234,3.83234,0,0,0,.53019-2.14453A3.01788,3.01788,0,0,0,24,12.90527a3.58365,3.58365,0,0,0-.19626-1.15576A4.802,4.802,0,0,0,24,10.40283ZM9,19a1.88937,1.88937,0,0,1-2.40928.88086,2.29512,2.29512,0,0,1-1.29764-.98535l-.14743-.252-.291.00489A2.39784,2.39784,0,0,1,2.94,17.31836a2.67856,2.67856,0,0,1-.35834-1.86524l.10057-.46972-.46477-.12012A1.94416,1.94416,0,0,1,.99984,12.8999a2.48721,2.48721,0,0,1,.1904-.94678l.07127-.17431L1.2,11.60107A3.70637,3.70637,0,0,1,.99984,10.3999,2.73637,2.73637,0,0,1,2.06216,8.02734l.47747-.2583-.29585-.45459A1.487,1.487,0,0,1,3.30708,5.022l.24019-.03125.124-.208A2.544,2.544,0,0,1,4.23369,4.127,2.209,2.209,0,0,1,5.9834,3.59326l.2607.04688.18454-.189a1.49315,1.49315,0,0,1,2.56111.97461L9,9H5.999V7.9082a1.49911,1.49911,0,1,0-.99983,0L5,10H9v4H7.90692a1.5,1.5,0,1,0,0,1H9Zm3-3V14H10V10h3V7h1v9Zm10.81074-4.0542a2.61,2.61,0,0,1,.18942.95947,1.93452,1.93452,0,0,1-1.21757,1.95508l-.46477.12012.10057.46973a2.68456,2.68456,0,0,1-.35834,1.86718,2.43185,2.43185,0,0,1-1.91863,1.334l-.289-.00293-.14744.248a2.30644,2.30644,0,0,1-1.29373.9834A1.88686,1.88686,0,0,1,15.00146,19L15,17h1.08918a1.5,1.5,0,1,0,0-1H15V7h4l-.00309,2.0918a1.5032,1.5032,0,1,0,.99984,0L20,6H15l.00049-1.58008A1.498,1.498,0,0,1,16.49927,3a1.51912,1.51912,0,0,1,1.077.45654l.18552.18555.25874-.04736a2.19458,2.19458,0,0,1,1.74484.53564,2.51564,2.51564,0,0,1,.56338.65576l.125.20459.23824.03076a1.49662,1.49662,0,0,1,1.30936,1.4751,1.52725,1.52725,0,0,1-.247.82227l-.28218.44824.46282.25586a2.69052,2.69052,0,0,1,1.06525,2.37988,3.81551,3.81551,0,0,1-.19918,1.20166l-.05761.17237Z"/></svg>