<svg xmlns="http://www.w3.org/2000/svg" viewBox="0 0 24 24" fill="currentColor"><circle cx="12" cy="3" r="1"/><circle cx="20" cy="8" r="1"/><circle cx="20" cy="16" r="1"/><circle cx="4" cy="8" r="1"/><circle cx="4" cy="16" r="1"/><path d="M13.96774,5.253l3.18889,1.78843A3.00159,3.00159,0,0,0,19,10.828v2.34136A3.01821,3.01821,0,0,0,17,16a2.73233,2.73233,0,0,0,.15665.91107L14,18.7a3.36342,3.36342,0,0,0-.5-.34v-3.8A2.94361,2.94361,0,0,0,15,12a3,3,0,0,0-6,0,2.94361,2.94361,0,0,0,1.5,2.56v3.8a3.36342,3.36342,0,0,0-.5.34L6.84335,17A3.2736,3.2736,0,0,0,7,16a3.04615,3.04615,0,0,0-2-2.85864v-2.3302A2.98426,2.98426,0,0,0,7,8a3.0148,3.0148,0,0,0-.15663-.95854L10.03226,5.253a2.96529,2.96529,0,0,0,3.93548,0M14,4a2.5,2.5,0,0,1-4,0L5.48114,6.65891A2.01194,2.01194,0,0,1,4,10v4a1.97729,1.97729,0,0,1,1.48108,3.29361L10,20a2.10415,2.10415,0,0,1,1.5-1V14A2.08116,2.08116,0,0,1,10,12a2,2,0,0,1,4,0,2.08116,2.08116,0,0,1-1.5,2v5A2.10415,2.10415,0,0,1,14,20l4.51892-2.70639A1.98345,1.98345,0,0,1,20,14V10a2.01232,2.01232,0,0,1-2-2.0119,1.97593,1.97593,0,0,1,.51886-1.32919Z"/><circle cx="12" cy="21" r="1"/><circle cx="12" cy="12" r="1"/></svg>